<?xml version="1.0" standalone="no"?><!DOCTYPE svg PUBLIC "-//W3C//DTD SVG 1.1//EN" "http://www.w3.org/Graphics/SVG/1.1/DTD/svg11.dtd"><svg t="1512111685973" class="icon" style="" viewBox="0 0 924 924" version="1.1" xmlns="http://www.w3.org/2000/svg" p-id="1258" data-spm-anchor-id="a313x.7781069.0.i14." xmlns:xlink="http://www.w3.org/1999/xlink" width="200" height="200"><defs><style type="text/css"></style></defs><path d="M512 89.5488A320 320 0 0 0 192 409.6c0 176.7424 320 524.9536 320 524.9536s320-348.16 320-524.9536A320 320 0 0 0 512 89.5488z m0 506.88A186.88 186.88 0 1 1 698.88 409.6a186.88 186.88 0 0 1-186.88 186.8288z" fill="#ffffff" p-id="1259" data-spm-anchor-id="a313x.7781069.0.i11." class="selected"></path><path d="M512 409.5488m-132.1472 0a132.1472 132.1472 0 1 0 264.2944 0 132.1472 132.1472 0 1 0-264.2944 0Z" fill="#1296db" p-id="1260" data-spm-anchor-id="a313x.7781069.0.i10." class=""></path></svg>
