<?xml version="1.0" standalone="no"?><!DOCTYPE svg PUBLIC "-//W3C//DTD SVG 1.1//EN" "http://www.w3.org/Graphics/SVG/1.1/DTD/svg11.dtd"><svg t="1512097793294" class="icon" style="" viewBox="0 0 1124 1124" version="1.1" xmlns="http://www.w3.org/2000/svg" p-id="1518" xmlns:xlink="http://www.w3.org/1999/xlink" width="200" height="200"><defs><style type="text/css"></style></defs><path d="M873.608781 150.388149C777.025049 53.80237 648.601144 0.602727 511.995907 0.602727c-136.595005 0-265.017886 53.199643-361.614921 149.785422C53.797253 246.983137 0.597611 375.406019 0.597611 512.001023c0 136.605238 53.199643 265.028119 149.783375 361.612875 96.597035 96.593965 225.019916 149.783375 361.614921 149.783375 136.605238 0 265.029142-53.188386 361.612874-149.783375C970.202747 777.030166 1023.402389 648.606261 1023.402389 512.001023c-0.011256-136.595005-53.199643-265.017886-149.793608-361.612874z m-31.355125 691.880857c-88.214111 88.211041-205.502397 136.78534-330.257749 136.785339-124.758422 0-242.036475-48.574299-330.257749-136.785339C93.524047 754.047732 44.939515 636.766608 44.939515 512.001023c0-124.755352 48.584532-242.036475 136.798643-330.257749C269.959432 93.532233 387.237485 44.946678 511.995907 44.946678c124.755352 0 242.043638 48.584532 330.257749 136.795573 88.221274 88.221274 136.795573 205.502397 136.795573 330.257749 0.001023 124.766608-48.573275 242.047732-136.795573 330.269006z m0 0" p-id="1519"></path><path d="M687.461197 292.000424l-0.051165-0.090051-1.358951 0.744967a39.105646 39.105646 0 0 0-4.140297 2.288112l-29.250184 16.139586-0.010233-0.01842-202.963575 111.848391a44.585451 44.585451 0 0 0-3.241834 1.782599l-0.203638 0.110517v0.010234c-3.869121 2.347464-7.745405 5.349845-11.385304 8.986675-3.394307 3.40761-6.265704 7.002484-8.532327 10.611685l-0.020467-0.010233-0.281409 0.513699a51.597145 51.597145 0 0 0-2.288112 4.160763L351.581404 580.012l-0.180102-0.100284-54.741765 99.204419c-10.82044 14.155395-10.345626 33.864272 1.896186 46.095851 10.004865 10.004865 25.006534 12.172227 37.893029 6.711866l0.040932 0.090051 1.358951-0.756224a38.000476 38.000476 0 0 0 4.15053-2.288112l28.888957-15.940041 0.100284 0.193405 201.248513-110.895693c5.480828-2.486634 11.215436-6.448876 16.463974-11.68718 3.446495-3.445472 6.337335-7.103792 8.625448-10.761088h0.010233l0.149403-0.281409a50.241264 50.241264 0 0 0 2.36793-4.291746l72.423473-131.426285 0.222057 0.12075 54.741765-99.194187c10.82044-14.168698 10.348696-33.864272-1.896186-46.106084-9.995655-10.003841-25.007557-12.159948-37.883819-6.699585zM558.726208 558.599318l0.191358 0.110517-1.400906 1.400906-207.06294 114.098641a7.693216 7.693216 0 0 0-0.283455-0.303922l114.419959-207.638037 2.77009-2.77009 206.237131-113.641223c0.030699 0.038886 0.059352 0.079818 0.100284 0.110517L558.726208 558.599318z m0 0" p-id="1520"></path></svg>
