<?xml version="1.0" standalone="no"?><!DOCTYPE svg PUBLIC "-//W3C//DTD SVG 1.1//EN" "http://www.w3.org/Graphics/SVG/1.1/DTD/svg11.dtd"><svg t="1512438793418" class="icon" style="" viewBox="0 0 6144 1024" version="1.1" xmlns="http://www.w3.org/2000/svg" p-id="2796" xmlns:xlink="http://www.w3.org/1999/xlink" width="1200" height="200"><defs><style type="text/css"></style></defs><path d="M1083.533 455.479l-182.749 158.543c-11.506 11.355-16.757 27.714-14.040 43.748l43.151 254.663c3.376 20.18 0.006 34.641-16.34 46.695-9.247 6.807-20.251 10.278-31.253 10.278-8.451 0-16.929-2.045-24.716-6.188l-230.746-125.901c-14.222-7.569-31.212-7.569-45.433 0l-221.060 125.903c-17.913 9.551-39.598 7.937-55.996-4.090-16.345-12.054-29.399-26.49-25.97-46.695l52.862-259.948c2.716-16.033-2.534-32.394-14.040-43.748l-192.459-153.257c-14.537-14.288-19.719-35.677-13.5-55.156 6.27-19.48 22.882-33.658 42.92-36.619l250.336-44.476c15.896-2.34 29.637-12.446 36.748-27.027l115.253-246.228c8.93-18.376 27.4-30 47.653-30s38.667 11.623 47.651 30l110.731 246.222c7.111 14.585 20.854 24.695 36.753 27.035l254.853 44.475c19.986 2.932 36.648 17.139 42.869 36.619 6.246 19.479 0.983 40.868-13.473 55.157v0z" fill="#ffc600" p-id="2797"></path><path d="M2322.862 455.38l-182.749 158.543c-11.506 11.355-16.757 27.714-14.040 43.748l43.151 254.663c3.376 20.18 0.006 34.641-16.34 46.695-9.249 6.807-20.251 10.278-31.253 10.278-8.451 0-16.929-2.045-24.716-6.188l-230.746-125.901c-14.222-7.569-31.212-7.569-45.433 0l-221.060 125.903c-17.913 9.551-39.598 7.937-55.996-4.090-16.345-12.054-29.399-26.49-25.97-46.695l52.862-259.948c2.716-16.033-2.534-32.394-14.040-43.748l-192.459-153.257c-14.537-14.288-19.719-35.677-13.5-55.157 6.27-19.48 22.882-33.658 42.92-36.619l250.336-44.476c15.896-2.34 29.637-12.446 36.748-27.027l115.253-246.228c8.93-18.376 27.4-30 47.651-30s38.667 11.623 47.651 30l110.731 246.222c7.111 14.585 20.854 24.695 36.753 27.035l254.853 44.475c19.986 2.932 36.648 17.139 42.869 36.619 6.246 19.479 0.983 40.868-13.473 55.157v0z" fill="#ffc600" p-id="2798"></path><path d="M3563.174 455.38l-182.749 158.543c-11.506 11.355-16.757 27.714-14.040 43.748l43.151 254.663c3.376 20.18 0.006 34.641-16.34 46.695-9.247 6.807-20.251 10.278-31.253 10.278-8.451 0-16.929-2.045-24.716-6.188l-230.746-125.901c-14.222-7.569-31.212-7.569-45.433 0l-221.060 125.903c-17.913 9.551-39.598 7.937-55.996-4.090-16.345-12.054-29.399-26.49-25.97-46.695l52.86-259.948c2.716-16.033-2.534-32.394-14.040-43.748l-192.459-153.257c-14.537-14.288-19.719-35.677-13.5-55.157 6.272-19.48 22.882-33.658 42.92-36.619l250.336-44.476c15.896-2.34 29.637-12.446 36.748-27.027l115.253-246.228c8.93-18.376 27.4-30 47.651-30s38.667 11.623 47.651 30l110.731 246.222c7.111 14.585 20.854 24.695 36.753 27.035l254.853 44.475c19.986 2.932 36.648 17.139 42.869 36.619 6.246 19.479 0.983 40.868-13.473 55.157v0z" fill="#ffc600" p-id="2799"></path><path d="M4803.487 455.38l-182.749 158.543c-11.506 11.355-16.757 27.714-14.040 43.748l43.151 254.663c3.376 20.18 0.006 34.641-16.34 46.695-9.247 6.807-20.251 10.278-31.253 10.278-8.451 0-16.929-2.045-24.716-6.188l-230.746-125.901c-14.222-7.569-31.212-7.569-45.433 0l-221.060 125.903c-17.913 9.551-39.598 7.937-55.996-4.090-16.345-12.054-29.399-26.49-25.97-46.695l52.86-259.948c2.716-16.033-2.534-32.394-14.040-43.748l-192.459-153.257c-14.537-14.288-19.719-35.677-13.5-55.157 6.272-19.48 22.882-33.658 42.92-36.619l250.336-44.476c15.896-2.34 29.637-12.446 36.748-27.027l115.253-246.228c8.93-18.376 27.4-30 47.651-30s38.667 11.623 47.651 30l110.731 246.222c7.111 14.585 20.854 24.695 36.753 27.035l254.853 44.475c19.986 2.932 36.648 17.139 42.869 36.619 6.246 19.479 0.983 40.868-13.473 55.157v0z" fill="#ffc600" p-id="2800"></path><path d="M6043.799 455.38l-182.749 158.543c-11.506 11.355-16.757 27.714-14.040 43.748l43.151 254.663c3.376 20.18 0.006 34.641-16.34 46.695-9.247 6.807-20.251 10.278-31.253 10.278-8.451 0-16.929-2.045-24.716-6.188l-230.746-125.901c-14.222-7.569-31.212-7.569-45.433 0l-221.060 125.903c-17.913 9.551-39.598 7.937-55.996-4.090-16.345-12.054-29.399-26.49-25.97-46.695l52.86-259.948c2.716-16.033-2.534-32.394-14.040-43.748l-192.459-153.257c-14.537-14.288-19.719-35.677-13.5-55.157 6.272-19.48 22.882-33.658 42.92-36.619l250.336-44.476c15.896-2.34 29.637-12.446 36.748-27.027l115.253-246.228c8.93-18.376 27.4-30 47.653-30s38.667 11.623 47.651 30l110.731 246.222c7.111 14.585 20.854 24.695 36.753 27.035l254.853 44.475c19.986 2.932 36.648 17.139 42.869 36.619 6.246 19.479 0.983 40.868-13.473 55.157v0z" fill="#ffc600" p-id="2801"></path></svg>