<?xml version="1.0" standalone="no"?><!DOCTYPE svg PUBLIC "-//W3C//DTD SVG 1.1//EN" "http://www.w3.org/Graphics/SVG/1.1/DTD/svg11.dtd"><svg t="1512107016712" class="icon" style="" viewBox="0 0 1024 1024" version="1.1" xmlns="http://www.w3.org/2000/svg" p-id="990" xmlns:xlink="http://www.w3.org/1999/xlink" width="200" height="200"><defs><style type="text/css"></style></defs><path d="M937.067069 877.271194 763.965615 704.168718c55.744605-67.818595 89.25072-154.574494 89.25072-249.012354 0-216.562291-176.179558-392.749012-392.742872-392.749012S67.725474 238.594073 67.725474 455.156364s176.185698 392.742872 392.749012 392.742872c94.437859 0 181.193759-33.506115 249.012354-89.25072l173.101453 173.101453c7.52437 7.52437 17.381879 11.287067 27.239388 11.287067s19.715017-3.762697 27.239388-11.287067C952.116833 916.713508 952.116833 892.307655 937.067069 877.271194zM144.778384 455.156364c0-174.072571 141.622508-315.695079 315.695079-315.695079S776.163425 281.083793 776.163425 455.156364 634.547057 770.845303 460.474486 770.845303 144.778384 629.228935 144.778384 455.156364z" p-id="991" fill="#bbbbbb"></path></svg>